<?xml version="1.0" standalone="no"?>
<!DOCTYPE svg PUBLIC "-//W3C//DTD SVG 20010904//EN"
 "http://www.w3.org/TR/2001/REC-SVG-20010904/DTD/svg10.dtd">
<svg version="1.0" xmlns="http://www.w3.org/2000/svg"
 width="500.000000pt" height="500.000000pt" viewBox="0 0 500.000000 500.000000"
 preserveAspectRatio="xMidYMid meet">

<g transform="translate(0.000000,500.000000) scale(0.100000,-0.100000)"
fill="#000000" stroke="none">
<path class="animated-svg" d="M2360 4558 c-526 -30 -1059 -291 -1408 -688 -212 -242 -373 -544
-452 -845 -159 -615 -35 -1262 339 -1766 264 -356 652 -628 1067 -750 637
-186 1309 -66 1841 329 119 89 323 295 415 418 188 254 315 544 374 854 47
245 44 551 -7 800 -131 641 -549 1173 -1143 1455 -319 152 -653 215 -1026 193z
m472 -179 c329 -56 657 -213 926 -444 577 -495 803 -1313 562 -2035 -187 -562
-606 -996 -1160 -1203 -395 -147 -851 -155 -1257 -21 -705 232 -1211 851
-1303 1596 -18 142 -8 433 19 578 67 354 248 701 504 966 329 341 728 535
1197 584 125 13 370 3 512 -21z"/>
<path class="animated-svg" d="M2339 4070 c-57 -10 -102 -42 -128 -90 -24 -45 -24 -45 -135 -78
-181 -54 -350 -143 -502 -263 -57 -45 -66 -49 -116 -49 -117 0 -202 -107 -177
-220 8 -37 6 -45 -22 -86 -81 -118 -164 -325 -200 -499 -28 -135 -35 -335 -15
-480 20 -152 35 -212 92 -356 77 -200 187 -363 353 -522 158 -151 358 -271
555 -333 47 -15 64 -26 84 -56 61 -92 187 -113 269 -44 25 21 42 24 158 29
556 27 1022 330 1268 823 158 317 192 712 90 1063 -34 120 -28 115 -106 79
-58 -27 -67 -35 -62 -52 59 -209 80 -361 71 -516 -42 -665 -580 -1206 -1231
-1236 l-120 -6 -18 41 c-49 108 -197 136 -286 55 -21 -19 -45 -34 -52 -34 -56
0 -298 124 -403 206 -416 326 -603 842 -486 1340 34 147 98 300 167 405 22 34
28 37 58 32 65 -10 148 36 182 101 11 20 16 54 16 98 -1 67 -1 67 40 101 118
96 305 193 455 235 l73 21 44 -34 c84 -64 179 -55 254 22 l43 46 98 -12 c80
-10 187 -34 300 -68 18 -5 78 123 64 136 -29 27 -234 76 -378 90 -85 8 -91 11
-120 44 -49 56 -109 78 -177 67z"/>
<path class="animated-svg" d="M2990 3633 c-106 -241 -208 -470 -226 -510 l-33 -71 -42 14 c-23 8
-77 19 -120 25 -196 24 -404 -58 -526 -210 -34 -43 -55 -60 -73 -61 -51 -1
-109 -37 -140 -86 -51 -81 -37 -181 33 -240 27 -22 34 -39 49 -112 26 -129 75
-221 170 -315 87 -87 170 -133 291 -161 128 -30 279 -11 399 49 154 77 282
241 317 403 17 83 14 218 -8 297 -11 38 -19 70 -18 71 6 3 893 397 945 420 59
25 63 29 57 53 -3 14 -29 67 -56 116 -171 309 -438 565 -756 724 -34 17 -64
31 -65 31 -2 0 -91 -197 -198 -437z m-355 -715 c14 -6 25 -16 24 -22 0 -6 -24
-63 -52 -126 l-52 -115 -38 3 c-79 7 -143 -36 -172 -117 -12 -35 -13 -52 -4
-85 14 -51 83 -120 129 -129 97 -20 206 76 199 174 -2 21 1 43 6 47 22 19 227
104 239 99 8 -3 19 -36 27 -78 25 -142 -19 -278 -127 -385 -95 -95 -186 -134
-315 -134 -212 0 -402 161 -435 368 -5 35 -3 40 31 66 68 52 92 144 59 225
-15 38 -15 41 8 71 43 59 139 119 230 145 60 17 200 13 243 -7z"/>
</g>
</svg>
