<svg xmlns="http://www.w3.org/2000/svg" viewBox="0 0 636 233.5"><defs><style>.cls-1{fill:#225381;}.cls-2{fill:#97c5d2;}</style></defs><g id="Layer_2" data-name="Layer 2"><g id="Calque_1" data-name="Calque 1"><path class="cls-1" d="M93.1,89.4a17.2,17.2,0,0,0-9.2,2.3,7.7,7.7,0,0,0-3.5,6.9,8.2,8.2,0,0,0,3.5,7.1c2.4,1.6,7.5,3.4,15.3,5.3s13.7,4.5,17.7,7.9,5.9,8.4,5.9,15.1a19.9,19.9,0,0,1-7.5,16.1c-5,4.2-11.6,6.2-19.7,6.2A46.3,46.3,0,0,1,63.9,144l8.1-9.6c7.7,6.6,15.6,10,23.9,10q6.1,0,9.9-2.7a8.4,8.4,0,0,0,3.6-7.1,7.8,7.8,0,0,0-3.4-6.8c-2.3-1.6-6.2-3.1-11.8-4.5a103.9,103.9,0,0,1-12.8-3.7,29.1,29.1,0,0,1-7.7-4.4c-4.5-3.4-6.7-8.6-6.7-15.6s2.5-12.5,7.6-16.3,11.5-5.7,19-5.7A45.4,45.4,0,0,1,108.1,80a37.9,37.9,0,0,1,12.4,6.7l-6.9,9.7a25.2,25.2,0,0,0-9.1-5A35.1,35.1,0,0,0,93.1,89.4Z"/><path class="cls-1" d="M138.7,79.4h12.8v37.1l34.8-37.1h16.3l-30.5,33.3,31,42.8H187.8l-25.2-33.3-11.1,11.9v21.4H138.7Z"/><path class="cls-1" d="M215.3,79.4h12.8v76.1H215.3Z"/><path class="cls-1" d="M249.2,155.5V79.4H262v63.9h34.7v12.2Z"/><path class="cls-1" d="M310.8,155.5V79.4h12.8v63.9h34.7v12.2Z"/><path class="cls-2" d="M396,88.2a17.9,17.9,0,0,0-9.4,2.3,7.8,7.8,0,0,0-3.6,7,8.4,8.4,0,0,0,3.6,7.3c2.5,1.6,7.6,3.4,15.6,5.3s13.9,4.6,17.9,8.1,6.1,8.6,6.1,15.4a20.3,20.3,0,0,1-7.7,16.4c-5.1,4.2-11.7,6.4-20,6.4-12.1,0-22.9-4.2-32.3-12.6l8.2-9.8c7.9,6.8,16,10.2,24.4,10.2,4.2,0,7.6-.9,10-2.8a8.5,8.5,0,0,0,3.8-7.2,7.9,7.9,0,0,0-3.5-6.9c-2.4-1.7-6.4-3.2-12.1-4.6a98.3,98.3,0,0,1-12.9-3.8,28.8,28.8,0,0,1-7.9-4.4c-4.6-3.5-6.9-8.8-6.9-16s2.6-12.7,7.8-16.6,11.7-5.8,19.4-5.8a47.1,47.1,0,0,1,14.7,2.4,41.8,41.8,0,0,1,12.7,6.9l-7,9.9a25.6,25.6,0,0,0-9.3-5.1A34.5,34.5,0,0,0,396,88.2Z"/><path class="cls-2" d="M452,137.8l-7.7,17.7h-14L464.4,78h14l34.1,77.5H498.6l-7.8-17.7Zm33.5-12-14.1-32-14.1,32Z"/><path class="cls-2" d="M547.6,155.5H534.3V124.9L505.5,78h14.3l21.1,35.2L562.1,78h14.3l-28.8,46.9Z"/><polygon class="cls-1" points="0 202.3 0 0 360.9 0 307.9 35.2 35.7 35.2 35.7 178.4 0 202.3"/><polygon class="cls-2" points="636 31.2 636 233.5 275.1 233.5 328.1 198.3 600.3 198.3 600.3 55.1 636 31.2"/></g></g></svg>