<?xml version="1.0" encoding="utf-8"?>
<!-- Generator: Adobe Illustrator 24.2.3, SVG Export Plug-In . SVG Version: 6.00 Build 0)  -->
<svg version="1.1" id="Layer_1" xmlns="http://www.w3.org/2000/svg" xmlns:xlink="http://www.w3.org/1999/xlink" x="0px" y="0px"
	 viewBox="0 0 137.4 137.3" style="enable-background:new 0 0 137.4 137.3;" xml:space="preserve">
<style type="text/css">
	.st0{fill:none;stroke:#99C5D1;stroke-width:1.109;stroke-miterlimit:10;}
	.st1{filter:url(#Tracé_35);}
	.st2{fill:#FFFFFF;}
	.st3{opacity:0.39;fill:none;stroke:#A1C2FF;stroke-width:0.554;stroke-miterlimit:10;enable-background:new    ;}
	.st4{fill:#EAF7FA;}
	.st5{fill:#99C5D1;}
	.st6{fill:#78B2BF;}
	.st7{opacity:0.368;fill:#99C5D1;enable-background:new    ;}
	.st8{fill:#D7F0F5;}
	.st9{opacity:0.409;fill:#78B2BF;enable-background:new    ;}
	.st10{fill:none;stroke:#78B2BF;stroke-width:0.281;stroke-miterlimit:10;}
	.st11{fill:#0C4872;}
	.st12{fill:#DFEFF2;}
	.st13{filter:url(#Tracé_67);}
	.st14{opacity:0.182;fill:#70B1BF;enable-background:new    ;}
	.st15{clip-path:url(#SVGID_2_);}
	.st16{fill:#FFECE6;}
	.st17{filter:url(#Tracé_74);}
	.st18{opacity:0.18;fill:#70B1BF;enable-background:new    ;}
	.st19{clip-path:url(#SVGID_4_);}
	.st20{fill:#A9D0D9;}
	.st21{fill:#CDE3E8;}
	.st22{fill:#70B1BF;}
	.st23{fill:#BFD9FF;}
	.st24{fill:#D9E8EB;}
	.st25{fill:none;stroke:#505E83;stroke-width:0.519;stroke-miterlimit:10;}
	.st26{fill:#F4F7FC;}
	.st27{fill:#16142A;}
	.st28{fill:#0A4065;}
	.st29{fill:#FF7759;}
	.st30{fill:#FF8D68;}
	.st31{fill:none;stroke:#093553;stroke-width:0.666;stroke-miterlimit:10;}
	.st32{fill:none;stroke:#E66657;stroke-width:0.666;stroke-miterlimit:10;}
	.st33{fill:#7E3636;}
	.st34{fill:none;stroke:#528A96;stroke-width:0.666;stroke-miterlimit:10;}
	.st35{fill:none;stroke:#A6D0F4;stroke-width:0.535;stroke-miterlimit:10;}
	.st36{fill:#EB7754;}
	.st37{fill:none;stroke:#78B2BF;stroke-width:0.535;stroke-miterlimit:10;}
	.st38{fill:none;stroke:#663136;stroke-width:0.535;stroke-miterlimit:10;}
</style>
<filter  filterUnits="userSpaceOnUse" height="78.518" id="Tracé_74" width="92.045" x="43.551" y="75.864">
	<feOffset  dy="3" input="SourceAlpha"></feOffset>
	<feGaussianBlur  result="blur-3" stdDeviation="9.5"></feGaussianBlur>
	<feFlood  flood-opacity="0.051"></feFlood>
	<feComposite  in2="blur-3" operator="in"></feComposite>
	<feComposite  in="SourceGraphic" operator="over"></feComposite>
</filter>
<filter  filterUnits="userSpaceOnUse" height="78.518" id="Tracé_67" width="92.044" x="54.169" y="50.304">
	<feOffset  dy="3" input="SourceAlpha"></feOffset>
	<feGaussianBlur  result="blur-2" stdDeviation="9.5"></feGaussianBlur>
	<feFlood  flood-opacity="0.071"></feFlood>
	<feComposite  in2="blur-2" operator="in"></feComposite>
	<feComposite  in="SourceGraphic" operator="over"></feComposite>
</filter>
<filter  filterUnits="userSpaceOnUse" height="100.22" id="Tracé_35" width="127.386" x="24.192" y="0">
	<feOffset  dy="3" input="SourceAlpha"></feOffset>
	<feGaussianBlur  result="blur" stdDeviation="9.5"></feGaussianBlur>
	<feFlood  flood-opacity="0.09"></feFlood>
	<feComposite  in2="blur" operator="in"></feComposite>
	<feComposite  in="SourceGraphic" operator="over"></feComposite>
</filter>
<g id="Illustration" transform="translate(0.635 25.5)">
	<path id="Tracé_33" class="st0" d="M26.6,35.1c3.9-17.2,21-27.9,38.2-24c0.9,0.2,1.7,0.4,2.5,0.7c0.4,0.1,0.7,0.2,1.1,0.4
		c23.2,8,15.6,31.5,27.1,38.7s19.9,17.7,14.8,31.5s-35.8,26.8-60.1,11.9C31.3,82.6,21.4,58.2,26.6,35.1z"/>
	<circle id="Ellipse_9" class="st0" cx="17.2" cy="11.2" r="15"/>
	<g id="illustration-2" transform="translate(9.886)">
		<g transform="matrix(1, 0, 0, 1, -10.52, -25.5)" class="st1">
			<path id="Tracé_35-2_1_" class="st2" d="M106,45.6l16.9-38c0.3-0.7,0-1.5-0.7-1.8c-0.2-0.1-0.4-0.1-0.6-0.1H74.1
				c-1.8,0-3.4,1-4.1,2.7L52.8,46.8c-0.3,0.7,0,1.5,0.7,1.8c0.2,0.1,0.4,0.1,0.6,0.1H101C103.2,48.8,105.1,47.5,106,45.6z"/>
		</g>
		<path id="Tracé_37" class="st3" d="M67.8,32.7h2.2l-5.8,11.4H28.8l1.4-2.8"/>
		<g id="Groupe_67" transform="translate(59.363 8.221)">
			<path id="Tracé_44" class="st4" d="M36.4-9.6H1.3c-1.1,0-1.6-0.8-1.2-1.4l3.7-7.7c0.7-0.8,1.7-1.2,2.8-1.1H43
				c1.1,0,1.7,0.5,1.3,1.1l-5.2,8C38.4-10,37.4-9.6,36.4-9.6z"/>
			<path id="Tracé_45" class="st5" d="M38.7-16.3H6.6l0.3-0.9h32.4L38.7-16.3z"/>
			<path id="Tracé_46" class="st5" d="M30-14.3H5.9l0.4-0.9h24.5L30-14.3z"/>
			<path id="Tracé_47" class="st5" d="M22.1-12.5H5.2l0.4-0.9h17.3L22.1-12.5z"/>
		</g>
		<g id="Groupe_70" transform="translate(73.534 20.922)">
			<path id="Tracé_48" class="st6" d="M6-18.6c-0.3,0.7-1,1.2-1.8,1.3c-0.7,0-1.1-0.6-0.8-1.3c0.3-0.7,1-1.2,1.8-1.3
				C6-19.9,6.3-19.3,6-18.6z"/>
			<path id="Tracé_49" class="st6" d="M10.5-18.6c-0.3,0.7-1,1.2-1.8,1.3c-0.7,0-1.1-0.6-0.8-1.3c0.3-0.7,1-1.2,1.8-1.3
				C10.5-19.9,10.8-19.3,10.5-18.6z"/>
			<path id="Tracé_50" class="st6" d="M15-18.6c-0.3,0.7-1,1.2-1.8,1.3c-0.7,0-1.1-0.6-0.8-1.3c0.3-0.7,1-1.2,1.8-1.3
				C14.9-19.9,15.3-19.3,15-18.6z"/>
			<path id="Tracé_51" class="st7" d="M19.5-18.6c-0.3,0.7-1,1.2-1.8,1.3c-0.7,0-1.1-0.6-0.8-1.3c0.3-0.7,1-1.2,1.8-1.3
				C19.4-19.9,19.8-19.3,19.5-18.6z"/>
			<path id="Tracé_52" class="st7" d="M24-18.6c-0.3,0.7-1,1.2-1.8,1.3c-0.7,0-1.1-0.6-0.8-1.3c0.3-0.7,1-1.2,1.8-1.3
				C23.9-19.9,24.2-19.3,24-18.6z"/>
			<g id="Groupe_69" transform="translate(0 3.461)">
				<g id="Groupe_68" transform="translate(1.104 0.923)">
					<path id="Tracé_53" class="st8" d="M12.2-19.1l-5.7,5.9l-5.9,2.3l6.7,4.9l6.7-5.7L12.2-19.1z"/>
					<path id="Tracé_54" class="st9" d="M10.9-15.7l-4.3,2.5l-3.7,2.3l5,3.6l4.7-4.3L10.9-15.7z"/>
					<path id="Tracé_55" class="st10" d="M12.2-19.1l-5.7,5.9l-5.9,2.3l6.7,4.9l6.7-5.8L12.2-19.1z"/>
					<path id="Tracé_56" class="st6" d="M9.5-11.1c-0.1,0.2-0.3,0.4-0.6,0.4c-0.2,0-0.3-0.2-0.2-0.4c0.1-0.2,0.3-0.4,0.6-0.4
						C9.5-11.5,9.6-11.3,9.5-11.1z"/>
					<path id="Tracé_57" class="st10" d="M3.9-15.2l5,4l-9,0.5"/>
					<path id="Tracé_58" class="st10" d="M6.9-4.5l2.2-6.7l5.9-0.6"/>
					<line id="Ligne_10" class="st10" x1="12.5" y1="-19.9" x2="9.2" y2="-11.2"/>
				</g>
				<path id="Tracé_59" class="st6" d="M5.5-14.3c-0.2,0.4-0.5,0.7-1,0.7c-0.4,0-0.6-0.3-0.4-0.7c0.2-0.4,0.5-0.7,1-0.7
					C5.5-15,5.7-14.7,5.5-14.3z"/>
				<path id="Tracé_60" class="st6" d="M1.4-9.8c-0.2,0.4-0.5,0.7-1,0.7c-0.4,0-0.6-0.3-0.4-0.7c0.2-0.4,0.5-0.7,1-0.7
					C1.4-10.5,1.6-10.2,1.4-9.8z"/>
				<path id="Tracé_61" class="st6" d="M8.7-3.5c-0.2,0.4-0.5,0.7-1,0.7c-0.4,0-0.6-0.3-0.4-0.7c0.2-0.4,0.5-0.7,1-0.7
					C8.6-4.2,8.8-3.9,8.7-3.5z"/>
				<path id="Tracé_62" class="st6" d="M17-10.9c-0.2,0.4-0.5,0.7-1,0.7c-0.4,0-0.6-0.3-0.4-0.7c0.2-0.4,0.5-0.7,1-0.7
					C17-11.6,17.1-11.3,17-10.9z"/>
				<path id="Tracé_63" class="st6" d="M14.4-19.2c-0.2,0.4-0.5,0.7-1,0.7c-0.4,0-0.6-0.3-0.4-0.7c0.2-0.4,0.5-0.7,1-0.7
					C14.4-19.9,14.6-19.6,14.4-19.2z"/>
			</g>
		</g>
		<g id="Groupe_71" transform="translate(52.248 27.586)">
			<path id="Tracé_64" class="st11" d="M20-16.7H2.7l1.3-3.3h17.3L20-16.7z"/>
			<path id="Tracé_65" class="st12" d="M9.6-9.3H0l0.6-1.4h9.5L9.6-9.3z"/>
			<path id="Tracé_66" class="st12" d="M8.1-12.1H0.9l1.6-3.3h6.9L8.1-12.1z"/>
		</g>
		<g id="Groupe_79" transform="translate(72.149 49.951)">
			<g transform="matrix(1, 0, 0, 1, -82.67, -75.45)" class="st13">
				<path id="Tracé_67-2_1_" class="st2" d="M109.2,75.8l8.4-18.9c0.2-0.3,0-0.8-0.4-0.9c-0.1,0-0.2-0.1-0.3-0.1H93.3
					c-0.9,0-1.7,0.5-2,1.3l-8.6,19.2c-0.2,0.4,0,0.8,0.4,0.9c0.1,0,0.2,0.1,0.3,0.1h23.4C107.8,77.4,108.8,76.8,109.2,75.8z"/>
			</g>
			<g id="Groupe_78" transform="translate(6.612 0)">
				<path id="Tracé_149" class="st14" d="M7.2-14c4-3.3,9-3.7,11.2-1.1s0.7,7.5-3.3,10.7S6.1-0.6,4-3.3S3.2-10.7,7.2-14z"/>
				<g id="Groupe_77" transform="translate(0 0)">
					<g>
						<defs>
							
								<ellipse id="SVGID_1_" transform="matrix(0.7741 -0.6331 0.6331 0.7741 8.3305 5.0019)" cx="11.2" cy="-9.2" rx="9.3" ry="6.2"/>
						</defs>
						<clipPath id="SVGID_2_">
							<use xlink:href="#SVGID_1_"  style="overflow:visible;"/>
						</clipPath>
						<g id="Groupe_76" transform="translate(0 0)" class="st15">
							<g id="Groupe_75" transform="translate(-0.509 5.007)">
								<path id="Tracé_68" class="st11" d="M12.3-13.4c0,0,3.8,1.9,4.2,3.7s-1.3,6.4-1.3,6.4H0c0,0,2.5-5.4,4.4-6.7
									c1.8-1,3.7-1.7,5.7-2.2L12.3-13.4z"/>
								<g id="Groupe_74" transform="translate(7.819)">
									<g id="Groupe_73">
										<g id="Groupe_72" transform="translate(0.751 1.089)">
											<path id="Tracé_69" class="st16" d="M2.2-15.7L1-13.1c-0.2,0.3-0.1,0.6,0.2,0.7c0.7,0.2,1.4,0.1,2.1-0.2
												c0.3-0.1,0.5-0.4,0.6-0.6C4.2-14.5,5-17.1,5-17.1L2.2-15.7z"/>
											<path id="Tracé_70" class="st16" d="M2.3-18.6c0,0-2.4,3.3-2.3,4.3c0.2,0.7,3.7-0.4,4.5-1.3c0.7-0.9,2.3-2.4,1.6-3.6
												S3.9-20.1,2.3-18.6z"/>
										</g>
										<path id="Tracé_71" class="st11" d="M3.2-18c0,0-0.1,0.1-0.1,0.1c-0.1,0.2-0.3,0.7,0.2,0.7l0.8,0c0,0,1.2-0.7,1.7,0
											c0.4,0.7-0.8,1.2-0.7,1.6s0,0.3-0.1,0.5c-0.2,0.3-0.5,0.6-0.9,0.8c-0.6,0.2-1,0.2-1.5,0.5C2-13.5,1.4-13.6,0.9-14
											c-0.2-0.2-0.4,0.2-0.5,0.5s-0.6,0.4-0.2,0.7s0.8,0.5,1.6,0c0.5-0.3,1.1-0.6,1.7-0.7c0.7-0.1,1.3-0.5,1.8-1.1
											c0.3-0.5,0.4-1.2,0.7-1.4c0.3-0.2,0.4,0,0.3,0.3s1-0.2,1.3-1.1c0.3-0.9-0.2-0.8-0.3-1.3s0.5-1.1-0.1-1.5S6-19.4,5.8-19.7
											S4.6-20,3.9-19.4C3.5-19,3.2-18.5,3.2-18"/>
										<path id="Tracé_72" class="st16" d="M5.8-15.8c0,0,0.3-0.4,0.7-0.2c0.4,0.2-0.7,1.4-1.1,1.3C5-14.9,5.8-15.8,5.8-15.8z"
											/>
										<path id="Tracé_73" class="st11" d="M0.7-13.9c0,0,0.4-1.3,1.2-1.4s1.3,0.4,1.2,0.8c0,0.3,0.1,0.5,0.3,0.7
											C3.5-13.8,1.2-12.7,0.7-13.9z"/>
									</g>
								</g>
							</g>
						</g>
					</g>
				</g>
			</g>
		</g>
		<g id="Groupe_80" transform="translate(61.53 75.864)">
			<g transform="matrix(1, 0, 0, 1, -72.05, -101.36)" class="st17">
				<path id="Tracé_74-2_1_" class="st2" d="M98.6,101.4l8.4-18.9c0.2-0.3,0-0.8-0.4-0.9c-0.1,0-0.2-0.1-0.3-0.1H82.7
					c-0.9,0-1.7,0.5-2,1.3L72.1,102c-0.2,0.4,0,0.8,0.4,0.9c0.1,0,0.2,0.1,0.3,0.1h23.4C97.2,103,98.2,102.3,98.6,101.4z"/>
			</g>
		</g>
		<g id="Groupe_87" transform="translate(67.837 75.142)">
			<path id="Tracé_148" class="st18" d="M7.4-13.9c4.1-3.3,9.2-3.8,11.4-1.1s0.7,7.6-3.3,11S6.3-0.2,4-2.9S3.3-10.5,7.4-13.9z"/>
			<g id="Groupe_86" transform="translate(0 0)">
				<g>
					<defs>
						
							<ellipse id="SVGID_3_" transform="matrix(0.774 -0.6332 0.6332 0.774 8.2411 5.2114)" cx="11.4" cy="-8.9" rx="9.5" ry="6.4"/>
					</defs>
					<clipPath id="SVGID_4_">
						<use xlink:href="#SVGID_3_"  style="overflow:visible;"/>
					</clipPath>
					<g id="Groupe_85" transform="translate(0)" class="st19">
						<g id="Groupe_84" transform="translate(-4.391 5.189)">
							<path id="Tracé_75" class="st11" d="M18-16.3c0,0,1.2-0.6,1.3,0.1c0.1,0.4-0.1,0.8-0.4,1.1c0,0,1.1-0.3,1.3,0.6
								s-0.6,1.3-0.2,1.6s1.1,1,0.1,2.1s-2.5,2.4-4.2,1.6S14.7-14,14.7-14l0.4-1.2L18-16.3z"/>
							<path id="Tracé_76" class="st11" d="M16.9-19.8c0,0-2.6,0.2-3.4,2s0.8,1.9,0.8,1.9L16.9-19.8z"/>
							<path id="Tracé_77" class="st16" d="M0-7.4l0.2,0.3C1.4-5.8,2.6-4.5,4-3.2h3.7c1.6-1.5,3.2-3.2,4.6-4.9
								c0-0.2,2.3-2.7,1.8-3.7s-1.2-0.9-1.2-0.9c-0.6,0.2-1.2,0.5-1.6,1c-0.8,0.9-5,7.3-5,7.3C5.9-5.1,5.4-5.7,4.8-6.2
								c-1-0.7-3.9-2.3-3.9-2.3s0.2-1.2,0.2-1.5S0.3-11.2,0.1-11s0.3,1.3,0.3,1.3C0.2-9,0.1-8.2,0-7.4z"/>
							<path id="Tracé_78" class="st11" d="M9.3-5c0,0,0.1,0.8,0.3,1.8h7.3c0.2-1.7,0.5-5,0.7-5.8c0.1-1.3,0.2-2.6,0.1-3.9
								c0.1-0.6-1.7-0.4-1.7-0.4l-2.3,0l-0.4,0.2c-0.5,0.2-1,0.6-1.3,1.1c-0.3,0.4-0.7,1.1-1.3,1.9C9.9-9.5,7.9-8.3,8.1-6.8
								C8.2-5.3,9.3-5,9.3-5z"/>
							<path id="Tracé_79" class="st16" d="M14.6-14.7c-1.3,1.7-2.2,3.7-2.6,5.7c0.7-0.2,2.7-2.1,3.9-3.2c0.4-0.3,0.6-0.8,0.5-1.2
								c0.1-0.6,0.2-1.2,0.5-1.7C16.9-16.2,14.6-14.7,14.6-14.7z"/>
							<path id="Tracé_80" class="st16" d="M21-4.3c0,0,0.3,0.4,0.8,1.1h3.3C24.5-4.1,24-4.8,23.8-5c-0.5-0.8-4.3-9-6.6-8
								c-0.4,0.2-2,1.5-1.3,2.9S21-4.3,21-4.3z"/>
							<g id="Groupe_83" transform="translate(12.65)">
								<g id="Groupe_82" transform="translate(0 0.239)">
									<g id="Groupe_81">
										<path id="Tracé_81" class="st16" d="M1.8-18.3c-0.6,0.8-1.1,1.6-1.6,2.4c-0.4,0.8-0.1,1.6,0.7,1.7
											c1.1,0.1,2.9-0.2,3.4-0.8c0.8-1,2.6-2.7,1.9-4c-0.7-1.3-2.3-1.1-4.1,0.4C2-18.5,1.9-18.4,1.8-18.3z"/>
									</g>
								</g>
								<path id="Tracé_82" class="st11" d="M2.6-18.9c0,0-1.1,1.9,2.1,3l0.4,0.2c0,0,1.4-1.1,1.4-2.3c0.1-0.8-0.4-1.6-1.2-1.9
									C4.7-20.1,3-19.4,2.6-18.9z"/>
							</g>
							<path id="Tracé_83" class="st16" d="M17.2-15.6c0,0,0.8-0.6,0.8,0c0,0.5-1.2,1.1-1.3,0.9S17.2-15.6,17.2-15.6z"/>
						</g>
					</g>
				</g>
			</g>
		</g>
		<g id="Groupe_88" transform="translate(35.268 72.596)">
			<path id="Tracé_84" class="st11" d="M27.1-12.4H1c-0.8,0-1.2-0.6-0.9-1.4L2-18.5c0.4-0.8,1.1-1.4,2-1.4h26.1
				c0.8,0,1.2,0.6,0.9,1.4l-1.9,4.6C28.7-13.1,28-12.5,27.1-12.4z"/>
			<path id="Tracé_85" class="st2" d="M26.9-15.8H4.4l0.4-1.1h22.5L26.9-15.8z"/>
		</g>
		<g id="Groupe_93" transform="translate(33.18 3.051)">
			<g id="Groupe_89" transform="translate(6.983)">
				<path id="Tracé_86" class="st20" d="M1.1-18.5H0.2C0-18.5,0-18.6,0-18.7l0.4-0.9c0.1-0.2,0.2-0.3,0.4-0.3h0.9
					c0.2,0,0.2,0.1,0.2,0.3l-0.4,0.9C1.4-18.6,1.2-18.5,1.1-18.5z"/>
				<path id="Tracé_87" class="st21" d="M10.1-18.5H9.2c-0.2,0-0.2-0.1-0.2-0.3l0.4-0.9c0.1-0.2,0.2-0.3,0.4-0.3h0.9
					c0.2,0,0.2,0.1,0.2,0.3l-0.4,0.9C10.5-18.6,10.3-18.5,10.1-18.5z"/>
			</g>
			<g id="Groupe_90" transform="translate(5.301 4.162)">
				<path id="Tracé_88" class="st21" d="M1.1-18.5H0.2C0-18.5,0-18.6,0-18.7l0.4-0.9c0.1-0.2,0.2-0.3,0.4-0.3h0.9
					c0.2,0,0.2,0.1,0.2,0.3l-0.4,0.9C1.4-18.6,1.2-18.5,1.1-18.5z"/>
				<path id="Tracé_89" class="st21" d="M5.6-18.5H4.7c-0.2,0-0.2-0.1-0.2-0.3l0.4-0.9c0.1-0.2,0.2-0.3,0.4-0.3h0.9
					c0.2,0,0.2,0.1,0.2,0.3L6-18.7C5.9-18.6,5.8-18.5,5.6-18.5z"/>
				<path id="Tracé_90" class="st20" d="M10.1-18.5H9.2c-0.2,0-0.2-0.1-0.2-0.3l0.4-0.9c0.1-0.2,0.2-0.3,0.4-0.3h0.9
					c0.2,0,0.2,0.1,0.2,0.3l-0.4,0.9C10.5-18.6,10.3-18.5,10.1-18.5z"/>
				<path id="Tracé_91" class="st21" d="M13.7-18.5h-0.9c-0.2,0-0.2-0.1-0.2-0.3l0.4-0.9c0.1-0.2,0.2-0.3,0.4-0.3h0.9
					c0.2,0,0.2,0.1,0.2,0.3l-0.4,0.9C14.1-18.6,13.9-18.5,13.7-18.5z"/>
			</g>
			<g id="Groupe_91" transform="translate(0 8.325)">
				<path id="Tracé_92" class="st21" d="M4.7-18.5H3.8c-0.2,0-0.2-0.1-0.2-0.3L4-19.6c0.1-0.2,0.2-0.3,0.4-0.3h0.9
					c0.2,0,0.2,0.1,0.2,0.3l-0.4,0.9C5-18.6,4.9-18.5,4.7-18.5z"/>
				<path id="Tracé_93" class="st21" d="M1.1-18.5H0.2C0-18.5,0-18.6,0-18.7l0.4-0.9c0.1-0.2,0.2-0.3,0.4-0.3h0.9
					c0.2,0,0.2,0.1,0.2,0.3l-0.4,0.9C1.4-18.6,1.2-18.5,1.1-18.5z"/>
				<path id="Tracé_94" class="st20" d="M9.2-18.5H8.3c-0.2,0-0.2-0.1-0.2-0.3l0.4-0.9c0.1-0.2,0.2-0.3,0.4-0.3h0.9
					c0.2,0,0.2,0.1,0.2,0.3l-0.4,0.9C9.5-18.6,9.4-18.5,9.2-18.5z"/>
				<path id="Tracé_95" class="st21" d="M13.7-18.5h-0.9c-0.2,0-0.2-0.1-0.2-0.3l0.4-0.9c0.1-0.2,0.2-0.3,0.4-0.3h0.9
					c0.2,0,0.2,0.1,0.2,0.3l-0.4,0.9C14.1-18.6,13.9-18.5,13.7-18.5z"/>
			</g>
			<g id="Groupe_92" transform="translate(1.938 12.487)">
				<path id="Tracé_96" class="st21" d="M1.1-18.5H0.2C0-18.5,0-18.6,0-18.7l0.4-0.9c0.1-0.2,0.2-0.3,0.4-0.3h0.9
					c0.2,0,0.2,0.1,0.2,0.3l-0.4,0.9C1.4-18.6,1.2-18.5,1.1-18.5z"/>
			</g>
		</g>
		<g id="Groupe_98" transform="translate(30.24 84.171)">
			<g id="Groupe_94" transform="translate(9.842)">
				<path id="Tracé_97" class="st11" d="M1.5-17.9H0.3c-0.2,0-0.3-0.2-0.2-0.4l0.5-1.2c0.1-0.2,0.3-0.4,0.6-0.4h1.2
					c0.2,0,0.3,0.2,0.2,0.4l-0.5,1.2C2-18,1.8-17.9,1.5-17.9z"/>
				<path id="Tracé_98" class="st11" d="M14.3-17.9H13c-0.2,0-0.3-0.2-0.2-0.4l0.5-1.2c0.1-0.2,0.3-0.4,0.6-0.4h1.2
					c0.2,0,0.3,0.2,0.2,0.4l-0.5,1.2C14.7-18,14.5-17.9,14.3-17.9z"/>
			</g>
			<g id="Groupe_95" transform="translate(7.472 5.867)">
				<path id="Tracé_99" class="st21" d="M1.5-17.9H0.3c-0.2,0-0.3-0.2-0.2-0.4l0.5-1.2c0.1-0.2,0.3-0.4,0.6-0.4h1.2
					c0.2,0,0.3,0.2,0.2,0.4l-0.5,1.2C2-18,1.8-17.9,1.5-17.9z"/>
				<path id="Tracé_100" class="st22" d="M7.9-17.9H6.6c-0.2,0-0.3-0.2-0.2-0.4l0.5-1.2c0.1-0.2,0.3-0.4,0.6-0.4h1.2
					c0.2,0,0.3,0.2,0.2,0.4l-0.5,1.2C8.4-18,8.1-17.9,7.9-17.9z"/>
				<path id="Tracé_101" class="st21" d="M14.3-17.9H13c-0.2,0-0.3-0.2-0.2-0.4l0.5-1.2c0.1-0.2,0.3-0.4,0.6-0.4h1.2
					c0.2,0,0.3,0.2,0.2,0.4l-0.5,1.2C14.7-18,14.5-17.9,14.3-17.9z"/>
				<path id="Tracé_102" class="st21" d="M19.4-17.9h-1.2c-0.2,0-0.3-0.2-0.2-0.4l0.5-1.2c0.1-0.2,0.3-0.4,0.6-0.4h1.2
					c0.2,0,0.3,0.2,0.2,0.4l-0.5,1.2C19.8-18,19.6-17.9,19.4-17.9z"/>
			</g>
			<g id="Groupe_96" transform="translate(0 11.734)">
				<path id="Tracé_103" class="st21" d="M6.6-17.9H5.4c-0.2,0-0.3-0.2-0.2-0.4l0.5-1.2c0.1-0.2,0.3-0.4,0.6-0.4h1.2
					c0.2,0,0.3,0.2,0.2,0.4l-0.5,1.2C7.1-18,6.9-17.9,6.6-17.9z"/>
				<path id="Tracé_104" class="st23" d="M1.5-17.9H0.3c-0.2,0-0.3-0.2-0.2-0.4l0.5-1.2c0.1-0.2,0.3-0.4,0.6-0.4h1.2
					c0.2,0,0.3,0.2,0.2,0.4l-0.5,1.2C2-18,1.8-17.9,1.5-17.9z"/>
				<path id="Tracé_105" class="st21" d="M13-17.9h-1.2c-0.2,0-0.3-0.2-0.2-0.4l0.5-1.2c0.1-0.2,0.3-0.4,0.6-0.4h1.2
					c0.2,0,0.3,0.2,0.2,0.4l-0.5,1.2C13.5-18,13.2-17.9,13-17.9z"/>
				<path id="Tracé_106" class="st22" d="M19.4-17.9h-1.2c-0.2,0-0.3-0.2-0.2-0.4l0.5-1.2c0.1-0.2,0.3-0.4,0.6-0.4h1.2
					c0.2,0,0.3,0.2,0.2,0.4l-0.5,1.2C19.8-18,19.6-17.9,19.4-17.9z"/>
			</g>
			<g id="Groupe_97" transform="translate(2.731 17.601)">
				<path id="Tracé_107" class="st22" d="M1.5-17.9H0.3C0-17.9-0.1-18,0-18.3l0.5-1.2c0.1-0.2,0.3-0.4,0.6-0.4h1.2
					c0.2,0,0.3,0.2,0.2,0.4l-0.5,1.2C2-18,1.8-17.9,1.5-17.9z"/>
			</g>
		</g>
		<g id="Groupe_104" transform="translate(0 15.9)">
			<path id="Tracé_108" class="st24" d="M63.3,25.7H28l5.8-11.4h35.3L63.3,25.7z"/>
			<g id="Groupe_99" transform="translate(50.969 33.314)">
				
					<ellipse id="Ellipse_16" transform="matrix(0.7496 -0.6619 0.6619 0.7496 10.5146 1.0512)" class="st11" cx="6.6" cy="-13.4" rx="5.3" ry="4.1"/>
				<path id="Tracé_109" class="st2" d="M5.5-11c-0.1,0-0.3-0.1-0.4-0.2l-1.2-1.6c-0.2-0.3-0.1-0.6,0.2-0.8c0.2-0.2,0.6-0.2,0.8,0
					c0,0,0,0,0,0l0.9,1.2L9-15c0.2-0.2,0.6-0.2,0.8,0c0,0,0,0,0,0c0.2,0.3,0.1,0.6-0.2,0.8l-3.7,3C5.8-11.1,5.6-11,5.5-11z"/>
			</g>
			<g id="Groupe_103">
				<path id="Tracé_110" class="st25" d="M29.8-7.4C29.7-6.6,29-6,28.2-6.1c-0.8-0.1-1.4-0.8-1.3-1.6C27-8.5,27.6-9,28.3-9
					C29.2-9,29.8-8.3,29.8-7.4z"/>
				<path id="Tracé_111" class="st2" d="M14.5,1.4c-1.6,0.2-3.1,1.1-4.1,2.5c-1.7,2.4,0.8,11,8.3,14.5c4.9,1.9,5.2-2.4,4-5.5
					S17.9,2.1,14.5,1.4z"/>
				<path id="Tracé_112" class="st26" d="M47.8,93.9c0,1.1-10.7,2-23.9,2S0,95,0,93.9s10.7-2,23.9-2S47.8,92.8,47.8,93.9z"/>
				<g id="Groupe_100" transform="translate(12.771 75.975)">
					<path id="Tracé_113" class="st27" d="M2.4,11.4c0,0,0.5-1.1,2.4-0.8s2.1,0.7,2.3,1.6c0.2,0.9,0.6,1.6,1.3,2.2
						c1,0.7,2.2,1.2,3.3,1.5c1.3,0.2,1.4,1,1.2,1.4s-5.2,0.7-6.3,0.5c-1.5,0-3.1-0.1-4.6-0.4C1.2,17.1,2.3,11.8,2.4,11.4z"/>
					<path id="Tracé_114" class="st27" d="M11.8,11.4c0,0,0.5-1.1,2.4-0.8s2.1,0.7,2.3,1.6c0.2,0.9,0.6,1.6,1.3,2.2
						c1,0.7,2.2,1.2,3.3,1.5c1.3,0.2,1.4,1,1.2,1.4s-5.2,0.7-6.3,0.5c-1.5,0-3.1-0.1-4.6-0.4C10.6,17.1,11.8,11.8,11.8,11.4z"/>
					<path id="Tracé_115" class="st28" d="M0.7-15.6c-0.3-1.8,0.8-3.5,2.6-4c3.2-1,3.8,0.5,4.7,3.2S7.2,12.2,7.2,12.2
						s-3.9,0.1-4.8-0.5c0,0-2.6-17.2-2.4-21.3C0-11.6,0.3-13.6,0.7-15.6z"/>
				</g>
				<path id="Tracé_116" class="st29" d="M28.3-6.3c0.4,0.5,0.6,1,0.7,1.5c0,0.5-1,0.5-1,0.5L28.3-6.3z"/>
				<path id="Tracé_117" class="st30" d="M24.7-16.5c0,0,2.1,0.5,3.4,3.8s0.4,10.3-0.4,11.1S24.4-1.1,21-2.2
					c-3.6-1.2-4.8-4.9-5.5-7.4C14.3-14.3,18.4-19.2,24.7-16.5z"/>
				<path id="Tracé_118" class="st30" d="M17,1.6l1.7-6.2c0,0,3.5-1,5.7,1.3l0.7,1v4.1C22.4,2.2,19.7,2.2,17,1.6z"/>
				<path id="Tracé_119" class="st28" d="M12.2,35.2c-0.8,5.4-0.8,10.9,0,16.3c1.3,8.7,3.9,9.6,6.3,9.6s3-7,3.5-10
					s2.2-13.5-1.1-15.9S13.9,32.6,12.2,35.2z"/>
				<path id="Tracé_120" class="st11" d="M21.3,45.4c0,0-2.6-7,2-10s8-2.6,9.1,2.4s1.3,22.2-0.2,25.7S25.2,61.5,21.3,45.4z"/>
				<path id="Tracé_121" class="st2" d="M16.1,1.6c0,0,0.5-1.7,0.9-1.9s5.8-0.7,8.7,1c1.3,1,1.2,1.7,1.2,1.7S18.2,0.9,16.1,1.6z"/>
				<path id="Tracé_123" class="st5" d="M11.5,19.5c-0.3-2-1.2-12-0.9-13.5c0.4-2.1,1.9-3.8,3.8-4.6c0.2-0.1,0.3-0.1,0.5-0.1
					c0,0,9-0.6,15.4,2.2c0,0,2.2,1.8,2.6,11.1c0,0-0.1,1.6-0.5,4.9s0.2,5.8,0.7,9.1s1.6,6.6-2.3,7.3c-3.7,0.7-13.8,2.4-19.7,0.7
					c-1.2-0.9,0.5-4.9,0.5-8S11.5,19.5,11.5,19.5z"/>
				<path id="Tracé_124" class="st11" d="M25.4,60.9c-0.1-1.8,1.2-3.4,3-3.7c3.3-0.7,3.7,0.9,4.3,3.7s-3.2,27.5-3.2,27.5
					s-4.3,0.2-5.1-0.4c0,0-1-17.1-0.3-21.2C24.4,64.7,24.8,62.8,25.4,60.9z"/>
				<path id="Tracé_126" class="st31" d="M26.6,60.3c1.2-0.6,2.5-0.6,3.7,0"/>
				<path id="Tracé_127" class="st31" d="M26.3,61.5c0,0,1.5-0.9,4.1,1"/>
				<path id="Tracé_128" class="st31" d="M14.9,59c0,0,1.2-1.1,3.9,0.1"/>
				<path id="Tracé_129" class="st31" d="M15.7,60.1c1.1-0.5,2.4-0.3,3.4,0.4"/>
				<line id="Ligne_11" class="st31" x1="19.8" y1="61.8" x2="19.1" y2="84"/>
				<path id="Tracé_130" class="st31" d="M28.8,43.2c0,0,2.5,1.4,3.5-0.9"/>
				<path id="Tracé_131" class="st31" d="M31.2,43.5c0.6,5,0.9,9.9,0.9,14.9"/>
				<path id="Tracé_132" class="st32" d="M23.7-3c0.6,1.2,2,1.9,3.3,1.6"/>
				<path id="Tracé_133" class="st33" d="M27-15.1c0.6,0.8,1.1,1.7,1.3,2.7c0.1,1-1.5,2-1.8,2.6s0.3,1.4,0.1,1.8
					c-0.2,0.4-0.3,0.8-0.3,1.2l0.1,0.9c0,0.3-0.2,0.6-0.5,0.7l-0.2,0c-0.3,0.1-0.5-0.1-0.6-0.3c-0.3-0.7-0.9-2-1.3-2.1
					c-0.6-0.2-1.2,0.9-1.5,1.5c-0.1,0.3-0.5,1.1-0.7,1.8c-0.2,0.6-0.8,1-1.4,1c-0.6,0.1-1.2,0.1-1.8,0c-0.5-0.2-3.3-5.3-3.4-7.8
					c0-2.4,1.3-4.6,3.4-5.7C21.4-18.2,24.8-17.5,27-15.1z"/>
				<path id="Tracé_134" class="st34" d="M14.5,6.4c0,0.7,2.9,11.2,2.5,13.1s-1.7,14.8-1.7,14.8"/>
				<path id="Tracé_135" class="st35" d="M14.5,1.7"/>
				<path id="Tracé_136" class="st33" d="M22.6-18.5c0,0,1.7,0.1,2.3-0.8s2.5-1,3.9,0.3s1.3,3.9,0.1,4.8c0,0,1.4-0.3,1.6,0.7
					s-1.5,2.5-3.5,2.9c0,0-3.3-0.9-4.3-0.3S15-10.8,15-10.8s-1.4-1.3-1-2.5s0.8,0.1,0.8,0.1s-0.3-1.6,1.8-4S21.8-18.3,22.6-18.5z"/>
				<path id="Tracé_137" class="st36" d="M54.7,16.6l4.6,0.2c-0.2,0.3-0.5,0.6-0.9,0.6c-0.7,0.1-3.4,0.5-3.4,0.5L54.7,16.6z"/>
				<path id="Tracé_138" class="st30" d="M55.3,17.6c0.6-0.1,1.3-0.2,1.9-0.2c0.3,0.1,0.7,2,0.7,2l-1.2,1.3c0,0-0.5-0.2,0-0.9
					l0.3-0.5L55,18.6L55.3,17.6z"/>
				<g id="Groupe_102" transform="translate(26.089 23.303)">
					<path id="Tracé_139" class="st30" d="M24.7-4.6l2-0.3c0,0,1.6-1.6,2-1.8s2,2.4,2.2,2.7c-0.4,0.7-1.2,1.1-2,1.2
						c-1,0.1-1.3-0.1-1.3-0.1L25.3-2L24.7-4.6z"/>
					<g id="Groupe_101">
						<path id="Tracé_140" class="st2" d="M4.3-19.9c0,0-4.4,0-4.3,5.3S9.3-0.4,11.8,0.6s13.1-1.8,14-2.4S26.4-4.5,25-5L14.1-5.6
							C14.1-5.6,7.3-19.5,4.3-19.9z"/>
						<path id="Tracé_141" class="st37" d="M14.3-4.7c0.8,0.9,1.1,2.1,1,3.2"/>
						<path id="Tracé_142" class="st37" d="M15-4.9c1.3,0.5,2.2,1.7,2.4,3.1"/>
					</g>
				</g>
				<line id="Ligne_12" class="st25" x1="29.8" y1="-7.4" x2="25.3" y2="-7.4"/>
				<path id="Tracé_143" class="st29" d="M25.8-6.9c0,0-0.3-1.3-1.4-0.7s0.2,3.8,1.1,3.6S26-6.3,25.8-6.9z"/>
				<path id="Tracé_144" class="st38" d="M16.3-13.2c1.9-0.4,4,0.2,5.4,1.6"/>
				<path id="Tracé_145" class="st38" d="M16.8-13.6c1-0.9,2.4-1.2,3.7-0.8"/>
				<path id="Tracé_146" class="st38" d="M16.4-12.5c0.7,0.1,1.3,0.6,1.6,1.2"/>
				<path id="Tracé_147" class="st38" d="M26-18.8c0,0,3.1,1,2.4,3.9"/>
			</g>
		</g>
	</g>
</g>
</svg>
